<?xml version="1.0" encoding="utf-8"?>
<!-- Generator: Adobe Illustrator 16.0.0, SVG Export Plug-In . SVG Version: 6.00 Build 0)  -->
<!DOCTYPE svg PUBLIC "-//W3C//DTD SVG 1.1//EN" "http://www.w3.org/Graphics/SVG/1.1/DTD/svg11.dtd">
<svg version="1.1" id="Calque_1" xmlns="http://www.w3.org/2000/svg" xmlns:xlink="http://www.w3.org/1999/xlink" x="0px" y="0px"
	 width="500px" height="500px" viewBox="0 0 500 500" enable-background="new 0 0 500 500" xml:space="preserve">
<g>
	<path fill-rule="evenodd" clip-rule="evenodd" fill="none" stroke="#91C840" stroke-miterlimit="10" d="M20.948,225.99
		c4.269,8.17,7.918,16.073,12.449,23.34c4.138,6.994,12.542,8.294,19.53,3.494c3.256-2.203,6.193-5.038,10.27-5.042
		c11.535-0.012,21.403-5.028,31.245-10.21c7.451-3.768,15.243-7.041,23.628-8.396c5.488-0.939,10.448,0.124,15.068,2.726
		c8.987,4.986,9.898,10.154,3.649,18.402c-19.887,26.408-22.702,54.273-7.595,83.935c1.944,3.857,3.628,7.768,5.274,11.354
		c2.97,7.143,1.376,13.156-3.361,19.043c-13.772,16.486-12.864,20.537,5.679,30.416c5.717,3.18,11.464,6.451,16.2,10.928
		c2.215,1.67,5.512,4.223,5.347,6.318c-0.119,10.258,7.24,11.115,14.051,12.996c4.699,1.289,10.662,6.699,14.172,2.123
		c2.984-3.982-2.964-9.24-5.796-13.326c-7.96-12.498-17.501-23.775-28.522-35.061c20.808-4.605,38.304-12.363,49.254-29.578
		c3.559-5.373,6.556-6.586,12.531-5.248c19.546,4.529,39.286,8.611,59.203,11.096c3.908,0.543,9.804-0.654,11.104,3.93
		c1.226,3.977-3.223,7.371-5.887,10.637c-1.281,1.404-2.68,2.717-4.061,4.033c-9.783,8.961-20.421,16.371-31.696,22.51
		c-7.473,4.357-11.784,11.164-16.821,16.994c-3.646,4.018-3.897,15.281,0.29,19.113c4.671,4.121,9.961-3.332,13.561-7.727
		c28.076-32.584,66.963-50.791,101.962-73.979c4.729-3.254,6.055-0.852,6.152,3.811c0.499,8.016,0.561,16.043,1.278,24.371
		c1.151,10.051,9.648,16.457,21.007,15.924c13.382-0.592,15.755-3.826,17.213-15.775c2.823-22.33,14.446-37.561,39.043-27.74
		c2.697,1.197,5.64,2.541,8.407,3.146c6.18,0.961,12.708,2.143,20.695-2.578c-9.989-3.129-17.341-6.652-22.771-14.307
		c5.971-1.391,11.925,1.285,17.271-4.264c-10.539-2.381-17.292-8.934-24.977-14.352c-7.867-5.777-16.541-9.42-26.392-7.955
		c-5.445,0.756-8.133-1.5-11.177-5.49c-14.033-20.256-29.694-39.451-44.957-58.866c-6.778-8.843-15.197-12.52-26.389-10.487
		c-16.022,3.165-31.854,8.174-48.926,6.801c-18.934-1.619-36.935-7.446-55.354-11.424c-18.84-4.031-37.669-8.245-55.862,2.508
		c-3.275,1.772-5.284,0.755-6.914-2.577c-3.38-7.248-9.856-9.924-17.447-10.533c-8.883-0.655-17.475,0.593-25.799,3.67
		c-11.222,4.289-22.428,8.792-33.713,12.74c-5.604,1.795-12.227,3.35-15.859-2.906C47.278,219.264,34.536,222.328,20.948,225.99z"/>
	<path fill-rule="evenodd" clip-rule="evenodd" fill="#ED1C24" stroke="#ED1C24" stroke-miterlimit="10" d="M20.948,225.99
		c13.587-3.662,26.33-6.727,35.259,8.538c3.633,6.256,10.255,4.701,15.859,2.906c11.285-3.948,22.491-8.451,33.713-12.74
		c8.324-3.078,16.916-4.326,25.799-3.67c7.591,0.608,14.067,3.285,17.447,10.533c1.63,3.332,3.639,4.349,6.914,2.577
		c18.193-10.753,37.022-6.539,55.862-2.508c18.419,3.978,36.421,9.805,55.354,11.424c17.071,1.373,32.903-3.636,48.926-6.801
		c11.191-2.033,19.61,1.645,26.389,10.487c15.263,19.415,30.924,38.61,44.957,58.866c3.044,3.99,5.731,6.246,11.177,5.49
		c9.851-1.465,18.524,2.178,26.392,7.955c7.685,5.418,14.438,11.971,24.977,14.352c-5.347,5.549-11.301,2.873-17.271,4.264
		c5.431,7.654,12.782,11.178,22.771,14.307c-7.987,4.721-14.516,3.539-20.695,2.578c-2.768-0.605-5.71-1.949-8.407-3.146
		c-24.597-9.82-36.22,5.41-39.043,27.74c-1.458,11.949-3.831,15.184-17.213,15.775c-11.358,0.533-19.855-5.873-21.007-15.924
		c-0.718-8.328-0.779-16.355-1.278-24.371c-0.098-4.662-1.424-7.064-6.152-3.811c-34.999,23.188-73.887,41.395-101.962,73.979
		c-3.6,4.395-8.89,11.848-13.561,7.727c-4.187-3.832-3.935-15.096-0.29-19.113c5.037-5.83,9.348-12.637,16.821-16.994
		c11.275-6.139,21.913-13.549,31.696-22.51c1.381-1.316,2.779-2.629,4.061-4.033c2.664-3.266,7.112-6.66,5.887-10.637
		c-1.3-4.584-7.195-3.387-11.104-3.93c-19.917-2.484-39.656-6.566-59.203-11.096c-5.975-1.338-8.972-0.125-12.531,5.248
		c-10.95,17.215-28.446,24.973-49.254,29.578c11.021,11.285,20.563,22.563,28.522,35.061c2.832,4.086,8.78,9.344,5.796,13.326
		c-3.51,4.576-9.473-0.834-14.172-2.123c-6.811-1.881-14.17-2.738-14.051-12.996c0.165-2.096-3.132-4.648-5.347-6.318
		c-4.736-4.477-10.483-7.748-16.2-10.928c-18.543-9.879-19.451-13.93-5.679-30.416c4.737-5.887,6.332-11.9,3.361-19.043
		c-1.646-3.586-3.33-7.496-5.274-11.354c-15.106-29.662-12.292-57.527,7.595-83.935c6.25-8.248,5.338-13.416-3.649-18.402
		c-4.621-2.602-9.581-3.665-15.068-2.726c-8.385,1.354-16.177,4.627-23.628,8.396c-9.842,5.183-19.71,10.198-31.245,10.21
		c-4.077,0.004-7.014,2.84-10.27,5.042c-6.988,4.801-15.392,3.5-19.53-3.494C28.866,242.063,25.217,234.161,20.948,225.99z"/>
</g>
<rect x="-88" y="46.848" fill-rule="evenodd" clip-rule="evenodd" fill="none" width="676" height="226.246"/>
<text transform="matrix(1 0 0 1 158.3306 107.2012)"><tspan x="0" y="0" fill="#ED1F24" font-family="'Impact'" font-size="76.2995">BUFFA </tspan><tspan x="-10.767" y="91.56" fill="#ED1F24" font-family="'Impact'" font-size="76.2995">LOGRIL</tspan></text>
</svg>
